<?xml version="1.0" standalone="no"?>
<!DOCTYPE svg PUBLIC "-//W3C//DTD SVG 20010904//EN"
 "http://www.w3.org/TR/2001/REC-SVG-20010904/DTD/svg10.dtd">
<svg version="1.0" xmlns="http://www.w3.org/2000/svg"
 width="32.000000pt" height="32.000000pt" viewBox="0 0 32.000000 32.000000"
 preserveAspectRatio="xMidYMid meet">
<metadata>
Created by potrace 1.16, written by Peter Selinger 2001-2019
</metadata>
<g transform="translate(0.000000,32.000000) scale(0.004539,-0.003062)"
fill="#000000" stroke="none">
<path d="M6660 6039 c0 -11 -4 -28 -9 -38 -5 -9 -11 -50 -12 -91 -2 -63 -6
-78 -25 -96 -15 -14 -24 -38 -28 -70 -4 -27 -10 -66 -15 -86 -6 -28 -5 -41 5
-49 8 -6 14 -20 14 -30 0 -36 15 -19 27 31 16 67 47 107 90 115 20 4 40 2 48
-5 15 -13 85 11 85 29 0 17 -4 26 -12 24 -3 -1 -12 5 -20 14 -10 13 -10 17 0
20 6 3 12 11 12 18 0 7 23 -9 50 -35 37 -35 53 -45 56 -35 7 18 -51 77 -98 98
-26 12 -56 16 -102 14 l-66 -3 0 62 c0 35 5 66 10 69 6 3 10 19 10 36 0 16 -4
29 -10 29 -5 0 -10 -9 -10 -21z"/>
<path d="M5260 5904 c-41 -8 -122 -21 -180 -28 -58 -8 -126 -24 -150 -35 -25
-11 -55 -21 -67 -21 -12 0 -42 -6 -65 -14 -24 -8 -70 -22 -103 -32 -33 -9 -77
-26 -97 -36 -21 -10 -45 -18 -55 -18 -23 0 -151 -38 -183 -55 -14 -7 -41 -16
-60 -20 -19 -4 -64 -17 -100 -30 -36 -12 -87 -25 -115 -29 -64 -9 -145 -35
-166 -53 -11 -9 -29 -12 -55 -8 -35 6 -42 3 -69 -25 l-30 -32 125 7 c73 4 136
13 152 21 15 8 35 14 44 14 9 0 71 16 138 35 67 20 148 42 181 51 69 18 124
36 285 92 63 22 169 54 235 72 66 17 152 40 190 51 101 27 190 38 270 33 151
-9 252 -23 296 -43 70 -31 146 -46 165 -31 25 22 17 27 -151 101 -46 20 -235
49 -310 48 -28 0 -84 -7 -125 -15z"/>
<path d="M4990 5650 c-14 -4 -53 -8 -87 -9 -39 -1 -63 -5 -66 -13 -3 -10 -7
-10 -19 0 -13 10 -18 9 -28 -3 -17 -20 -34 -19 -26 2 6 15 4 14 -14 -2 -15
-13 -24 -15 -31 -8 -8 8 -21 4 -46 -13 -26 -17 -50 -24 -84 -24 -57 0 -79 -7
-79 -27 0 -11 -8 -12 -35 -7 -49 9 -85 -2 -85 -26 0 -21 -26 -28 -32 -9 -2 7
-12 7 -31 0 -19 -8 -25 -15 -20 -27 5 -14 2 -16 -18 -11 -16 4 -35 -1 -54 -13
-17 -11 -39 -20 -51 -20 -11 0 -24 -3 -28 -7 -13 -13 -265 -65 -277 -57 -14 8
-50 -32 -43 -49 3 -8 0 -26 -7 -38 -11 -22 -12 -22 -25 -4 -10 14 -14 15 -14
4 0 -8 14 -22 30 -31 34 -19 38 -41 12 -60 -27 -19 -42 -52 -42 -92 0 -38 10
-45 30 -21 10 12 10 18 -1 32 -12 15 -12 16 4 10 10 -4 21 -7 23 -7 2 0 4 -9
4 -20 0 -16 7 -20 34 -20 29 0 39 -7 70 -49 20 -27 36 -52 36 -55 0 -10 63
-77 68 -72 2 3 -5 17 -16 33 -53 76 -88 217 -60 241 8 6 33 14 56 18 41 6 42
6 58 -32 77 -184 212 -313 396 -376 84 -29 104 -32 208 -31 126 0 189 16 305
77 63 33 175 131 200 175 21 39 72 143 79 164 7 21 20 21 119 2 85 -16 209
-56 269 -86 51 -26 59 -44 42 -92 -26 -75 -6 -63 26 15 6 14 24 32 40 38 16 7
34 18 40 25 13 16 3 45 -16 45 -8 0 -19 9 -26 20 -7 11 -19 20 -26 20 -7 0
-28 11 -46 25 -18 14 -41 25 -50 25 -9 0 -31 7 -48 16 -42 22 -300 55 -533 69
-70 4 -328 12 -485 15 -38 1 -49 4 -35 9 11 5 23 7 28 4 4 -2 7 1 7 6 0 6 14
11 31 11 l31 0 -22 18 c-24 19 -20 45 4 36 7 -3 29 9 47 25 20 19 44 31 60 31
15 0 60 6 100 14 90 17 325 40 337 32 8 -5 143 -18 217 -20 22 -1 47 -6 55
-11 8 -5 44 -10 80 -10 36 -1 71 -4 78 -9 9 -5 12 3 12 30 0 35 -1 36 -14 18
-14 -18 -15 -18 -21 -2 -4 10 -11 15 -17 12 -5 -3 -20 4 -34 17 -18 17 -34 22
-69 21 -44 -2 -60 10 -30 22 8 3 15 10 15 16 0 5 -7 10 -15 10 -8 0 -15 7 -15
16 0 11 -5 14 -16 10 -8 -3 -25 -1 -37 5 -19 11 -83 20 -144 21 -13 0 -23 4
-23 9 0 14 -54 11 -69 -3 -11 -10 -14 -10 -18 0 -6 14 -33 16 -33 2 0 -5 -7
-10 -15 -10 -8 0 -15 5 -15 10 0 12 -24 12 -60 0z m160 -570 c0 -24 -15 -44
-73 -102 -86 -86 -103 -96 -162 -105 -25 -3 -48 -10 -51 -14 -8 -14 -67 -10
-87 5 -21 17 -15 22 38 32 21 4 64 22 94 40 31 19 61 34 66 34 6 0 41 32 79
70 38 39 76 70 83 70 8 0 13 -12 13 -30z"/>
<path d="M3148 5525 c-24 -22 -30 -24 -48 -13 -17 11 -22 11 -29 0 -9 -15 -63
-22 -191 -26 -47 -1 -100 -6 -118 -10 -24 -6 -40 -3 -57 8 -30 20 -39 20 -31
1 3 -8 1 -15 -4 -15 -6 0 -10 -4 -10 -8 0 -4 26 -13 58 -20 49 -10 59 -10 68
3 17 23 54 19 54 -5 0 -17 7 -20 49 -20 27 0 62 5 76 10 15 6 45 11 66 12 22
1 44 7 50 15 6 7 15 13 19 13 17 0 90 54 90 67 0 19 -12 16 -42 -12z"/>
<path d="M6676 5531 c-3 -5 -22 -16 -42 -26 -30 -14 -38 -15 -45 -4 -6 10 -9
8 -9 -7 0 -12 -6 -27 -14 -33 -7 -6 -16 -39 -20 -74 -3 -34 -11 -63 -16 -65
-6 -2 -10 -14 -10 -26 0 -12 -5 -27 -11 -33 -12 -12 -15 -124 -4 -172 8 -36
32 -41 44 -8 5 12 7 25 5 28 -2 3 7 5 18 5 15 -1 24 7 29 24 l7 25 1 -28 c1
-25 3 -27 22 -16 13 7 19 17 16 29 -3 11 0 21 6 23 6 2 7 9 3 16 -5 7 -15 10
-23 7 -11 -5 -13 -2 -8 11 11 30 16 113 6 113 -18 0 -22 40 -7 71 9 17 13 35
11 40 -3 4 -1 10 4 13 15 10 39 -4 44 -26 4 -12 10 -17 17 -13 9 5 10 1 5 -14
-7 -23 4 -28 23 -9 18 18 27 0 10 -19 -9 -10 -14 -23 -11 -29 2 -6 -3 -17 -12
-24 -21 -18 -19 -33 5 -27 22 6 29 -18 8 -26 -7 -2 -10 -8 -6 -12 4 -4 17 3
28 16 l21 24 -4 -27 c-3 -23 -2 -26 13 -18 28 15 47 84 27 97 -4 2 -3 11 3 18
6 8 10 22 9 32 -1 10 1 25 5 34 4 9 -1 34 -10 56 -13 31 -25 42 -55 51 -46 14
-76 15 -83 3z"/>
<path d="M1918 5479 c4 -3 25 -11 47 -17 165 -43 203 -55 231 -74 18 -13 31
-25 28 -27 -10 -10 -104 -11 -204 -1 -147 14 -549 14 -710 0 -180 -16 -280
-45 -280 -82 0 -15 91 -49 104 -39 17 14 238 49 330 53 l80 3 45 -90 c108
-212 310 -335 551 -336 232 -1 418 100 545 296 l50 77 40 -7 c22 -3 44 -10 49
-15 4 -4 8 -33 7 -64 l0 -56 28 15 c16 8 31 20 33 27 3 7 21 13 42 14 38 1 75
27 79 55 2 8 6 20 11 27 5 8 3 24 -5 38 -18 34 2 55 29 31 16 -15 19 -15 31 5
l13 21 -108 -7 c-127 -9 -276 6 -419 41 -92 22 -297 68 -355 79 -14 2 -45 8
-70 14 -131 27 -242 36 -222 19z m602 -359 c0 -11 -4 -20 -10 -20 -5 0 -10 -6
-10 -14 0 -7 -9 -16 -20 -19 -11 -3 -24 -17 -30 -31 -6 -17 -17 -26 -31 -26
-11 0 -34 -10 -51 -21 -22 -16 -50 -23 -112 -26 -52 -4 -86 -2 -90 5 -3 5 8
12 28 16 18 4 56 18 84 31 29 14 57 25 63 25 14 0 80 39 94 55 10 12 63 42 78
44 4 1 7 -8 7 -19z"/>
<path d="M6691 4956 c-6 -7 -8 -21 -5 -30 5 -12 0 -19 -15 -23 -16 -4 -19 -11
-15 -28 6 -26 -23 -49 -49 -39 -9 3 -22 -4 -31 -17 -12 -18 -19 -20 -28 -11
-9 9 -9 17 0 37 15 33 15 35 -2 35 -20 0 -76 -52 -76 -71 0 -38 74 -67 86 -34
4 10 13 13 26 9 13 -4 25 1 37 15 10 12 25 21 33 21 21 0 38 21 38 47 0 16 4
21 15 17 8 -4 15 -1 15 5 0 6 -4 11 -10 11 -16 0 -12 40 5 46 8 4 15 10 15 15
0 14 -26 11 -39 -5z"/>
<path d="M3747 4414 c-4 -4 -7 -25 -7 -46 0 -35 -2 -39 -20 -33 -11 3 -20 2
-20 -2 0 -5 -17 -16 -37 -25 -59 -24 -66 -28 -93 -43 -14 -8 -41 -15 -61 -15
-29 0 -38 -5 -42 -22 -5 -17 -9 -19 -21 -9 -17 14 -66 4 -66 -13 0 -7 -12 -11
-27 -11 -38 2 -46 -4 -32 -21 9 -11 7 -14 -12 -14 -17 0 -20 -3 -12 -11 8 -8
18 -6 38 7 21 14 31 15 46 6 10 -6 25 -9 34 -6 8 3 15 2 15 -4 0 -6 -6 -12
-12 -15 -7 -2 13 -5 45 -4 31 0 60 3 62 7 3 5 13 6 23 3 25 -6 138 24 182 48
42 24 73 72 57 88 -8 8 -8 11 1 11 16 0 15 36 -2 85 -14 39 -26 52 -39 39z"/>
<path d="M6243 4048 c-6 -7 -18 -34 -29 -60 -10 -27 -22 -48 -26 -48 -5 0 -8
-9 -8 -20 0 -11 -4 -20 -10 -20 -5 0 -15 -11 -22 -24 -7 -14 -32 -45 -55 -70
-24 -24 -43 -48 -43 -53 0 -18 -267 -273 -286 -273 -10 0 -53 -27 -94 -60 -41
-33 -86 -66 -99 -73 -14 -7 -26 -18 -29 -24 -5 -18 25 -16 32 2 3 8 15 15 26
15 12 0 25 10 31 23 6 13 25 28 42 33 20 5 37 20 45 37 8 17 21 27 34 27 25 0
97 32 98 43 0 10 131 137 141 137 5 0 9 6 9 13 0 7 13 24 30 37 16 14 29 30
30 36 0 6 20 29 45 52 25 22 45 48 45 57 0 8 7 18 15 21 8 4 15 14 15 23 0 10
7 26 15 37 19 24 55 103 55 120 0 7 8 15 18 17 14 4 14 5 1 6 -9 0 -21 -5 -26
-11z"/>
<path d="M3754 3792 c-6 -4 -13 -15 -17 -24 -4 -11 -16 -16 -34 -16 -20 1 -50
-16 -101 -55 -66 -50 -76 -55 -110 -50 -35 5 -237 66 -331 100 -30 11 -88 17
-174 19 l-130 3 48 -26 c56 -30 92 -51 129 -77 15 -11 35 -20 44 -21 10 -1 31
-9 49 -18 18 -9 41 -17 53 -17 11 0 20 -4 20 -8 0 -5 12 -9 28 -9 16 0 39 -11
56 -26 29 -27 70 -36 81 -17 3 6 26 10 51 10 24 0 44 4 44 9 0 4 31 11 68 13
53 4 78 11 108 32 21 14 42 26 46 26 4 0 24 12 45 26 21 14 48 30 59 34 22 9
36 41 25 56 -16 23 -48 42 -57 36z"/>
<path d="M5540 3744 c0 -13 -49 -38 -68 -35 -10 2 -10 -2 0 -18 10 -17 9 -23
-14 -44 -17 -16 -23 -28 -17 -34 6 -6 4 -14 -6 -23 -15 -13 -20 -5 -16 28 3
22 -41 7 -64 -22 -17 -21 -28 -26 -44 -21 -15 4 -21 3 -19 -7 3 -14 -2 -15
-64 -17 -27 -1 -38 -5 -38 -16 0 -17 -46 -39 -67 -31 -7 3 -13 -1 -13 -10 0
-9 -6 -14 -12 -11 -7 2 -19 -3 -25 -12 -10 -13 -14 -14 -21 -3 -8 11 -10 11
-15 -1 -4 -10 -13 -13 -27 -10 -15 4 -23 0 -26 -13 -4 -16 -16 -19 -71 -21
-36 -1 -70 -6 -77 -11 -6 -5 -38 -12 -71 -16 -32 -4 -67 -14 -77 -23 -12 -10
-18 -12 -18 -4 0 9 -4 8 -14 -1 -13 -11 -13 -15 1 -25 9 -7 13 -16 8 -20 -4
-5 -10 -2 -12 5 -3 6 -13 12 -23 12 -10 0 -21 6 -23 13 -3 7 -6 4 -6 -7 -1
-13 -6 -16 -18 -11 -30 12 -53 14 -53 6 0 -12 -48 -31 -52 -21 -2 6 -18 6 -41
-1 -20 -5 -41 -8 -45 -6 -7 4 -42 -28 -42 -38 0 -18 -2 -18 -15 -1 -13 17 -15
18 -15 3 0 -9 -4 -17 -10 -17 -5 0 -10 5 -10 10 0 6 -5 10 -11 10 -6 0 -8 -7
-5 -16 4 -11 2 -15 -8 -11 -18 7 -86 -11 -106 -27 -13 -11 -30 -15 -80 -18 -8
-1 -30 -9 -47 -19 -18 -10 -33 -15 -33 -10 0 10 -39 3 -55 -10 -6 -4 -42 -13
-80 -20 -39 -6 -74 -15 -80 -19 -5 -4 -32 -11 -60 -14 -27 -3 -64 -8 -81 -10
-17 -2 -41 -9 -53 -15 -12 -7 -26 -9 -31 -6 -6 4 -23 0 -39 -8 -42 -21 -543
-16 -661 7 -47 9 -107 20 -135 25 -27 5 -63 14 -80 21 -16 6 -48 15 -70 20
-22 5 -65 16 -95 25 -30 9 -62 18 -70 19 -13 2 -76 29 -132 57 -10 5 -27 9
-37 9 -11 0 -23 5 -26 10 -4 6 -11 8 -16 4 -5 -3 -20 1 -32 9 -12 7 -37 17
-56 20 -19 4 -40 16 -47 26 -14 20 -71 34 -80 19 -3 -4 -15 -8 -26 -8 -12 0
-19 3 -15 6 11 12 -34 52 -54 47 -10 -3 -27 -2 -36 3 -24 10 -37 13 -105 20
-33 4 -58 11 -58 18 0 6 -4 5 -9 -3 -8 -12 -12 -12 -24 -2 -11 8 -17 9 -22 1
-3 -6 -10 -8 -15 -5 -12 8 -41 -6 -34 -16 3 -5 -2 -9 -11 -9 -9 0 -14 4 -11 8
2 4 -4 13 -14 20 -12 7 -21 8 -25 2 -3 -6 -16 -10 -28 -10 -32 -1 -64 -27 -50
-41 13 -13 47 -33 81 -48 12 -6 22 -13 22 -16 0 -8 -36 3 -84 26 -22 11 -46
19 -53 19 -8 0 -25 7 -38 16 -20 13 -25 13 -25 3 0 -22 17 -42 29 -35 10 7 16
-7 12 -28 -1 -5 4 -13 11 -17 10 -7 11 -12 1 -29 -7 -11 -13 -34 -13 -50 0
-17 -4 -29 -10 -25 -16 10 -50 -28 -50 -58 0 -16 -7 -30 -16 -34 -13 -5 -13
-7 -2 -14 10 -7 10 -9 -2 -9 -20 0 -50 -55 -50 -91 0 -18 -4 -28 -10 -24 -6 3
-10 -2 -10 -11 0 -10 -3 -15 -6 -11 -7 7 -34 -17 -34 -31 0 -5 -7 -15 -15 -22
-9 -7 -15 -29 -15 -54 0 -29 -3 -37 -10 -26 -7 11 -11 9 -19 -13 -6 -16 -11
-33 -11 -38 0 -5 -4 -9 -10 -9 -5 0 -10 -22 -10 -50 0 -37 -4 -50 -15 -50 -9
0 -16 -14 -20 -37 -3 -21 -13 -50 -21 -65 -8 -14 -14 -38 -14 -51 0 -14 -4
-29 -10 -32 -5 -3 -10 -17 -10 -31 0 -14 -4 -23 -9 -19 -13 7 -18 -4 -22 -45
-2 -19 -6 -37 -9 -40 -14 -14 -29 -75 -20 -84 16 -16 12 -30 -4 -17 -13 11
-14 4 -9 -44 6 -54 5 -57 -13 -47 -18 9 -19 6 -18 -39 0 -35 -3 -49 -13 -49
-10 0 -13 -23 -15 -92 0 -51 -1 -101 0 -110 1 -11 -4 -15 -12 -12 -10 4 -15
-11 -20 -57 -3 -34 -6 -75 -6 -91 0 -16 -7 -37 -16 -45 -11 -11 -14 -24 -9
-42 13 -51 17 -121 6 -121 -5 0 -12 24 -14 53 -2 32 -4 15 -5 -44 -1 -52 -6
-99 -10 -105 -5 -5 -5 -97 0 -204 12 -301 19 -384 30 -397 6 -7 8 -24 4 -37
-3 -14 0 -28 8 -35 8 -7 13 -32 13 -66 0 -59 8 -78 24 -55 6 10 7 4 2 -19 -5
-26 -3 -33 8 -29 15 5 45 -19 35 -29 -3 -3 2 -12 11 -18 14 -10 15 -16 5 -27
-14 -17 -6 -28 20 -28 17 0 19 -5 13 -30 -6 -27 -4 -30 20 -30 18 0 29 -6 32
-20 3 -11 8 -18 12 -15 4 2 15 -9 25 -26 9 -16 23 -29 31 -29 7 0 22 -11 32
-23 24 -31 87 -61 113 -54 11 3 20 1 20 -4 0 -5 36 -9 80 -9 47 0 80 -4 80
-10 0 -5 11 -10 25 -10 14 0 25 5 25 10 0 15 48 12 52 -2 4 -10 55 -14 202
-15 122 -2 203 -7 211 -13 7 -6 43 -11 79 -11 42 -1 69 -5 73 -13 5 -7 37 -16
73 -20 36 -4 101 -12 145 -17 279 -37 536 -21 567 35 18 33 78 4 78 -37 0 -10
8 -17 20 -17 11 0 20 -5 20 -11 0 -5 4 -8 9 -5 5 4 11 3 13 -1 1 -5 18 -16 36
-25 24 -13 70 -19 170 -24 75 -4 134 -4 130 0 -3 4 -42 7 -86 7 -74 0 -80 1
-86 22 -4 17 -8 19 -18 9 -18 -18 -51 -14 -72 9 -10 12 -25 19 -36 16 -13 -3
-34 13 -75 59 -56 64 -94 85 -118 66 -11 -9 -82 -26 -117 -27 -80 -4 -202 48
-256 108 -153 169 -191 563 -76 781 48 90 124 172 202 218 115 68 187 61 277
-28 40 -39 61 -53 77 -50 11 3 39 8 61 11 68 10 75 15 100 65 14 27 34 54 44
59 29 16 77 -5 102 -45 11 -19 25 -34 29 -34 5 0 17 13 26 30 19 31 68 60 103
60 24 0 46 -31 56 -77 8 -41 17 -47 98 -74 l68 -22 27 25 c51 47 157 116 189
122 63 14 179 -40 249 -116 112 -120 164 -258 164 -437 0 -156 -32 -291 -97
-409 -44 -80 -73 -109 -155 -155 -61 -34 -72 -37 -147 -37 -45 0 -81 4 -81 9
0 5 25 17 55 26 58 17 74 28 116 85 26 35 39 72 59 166 13 57 17 220 7 230 -9
9 -47 -25 -47 -43 0 -7 -9 -22 -20 -33 -11 -11 -23 -34 -27 -50 -6 -31 -17
-38 -28 -19 -5 6 -12 4 -20 -8 -11 -15 -16 -16 -27 -5 -11 11 -10 16 7 29 20
15 20 15 -2 8 -20 -6 -22 -3 -20 32 1 29 8 40 25 48 12 5 22 15 22 22 0 7 5
13 11 13 7 0 8 7 4 18 -4 9 -9 37 -11 62 -7 68 -12 77 -29 54 -8 -10 -15 -31
-15 -46 0 -15 -4 -30 -10 -33 -5 -3 -10 -15 -10 -26 0 -22 -18 -26 -26 -5 -3
8 -13 12 -25 9 -11 -3 -40 5 -65 17 l-45 23 -27 -20 c-15 -11 -29 -30 -30 -43
-3 -18 -8 -21 -31 -17 -19 4 -35 -1 -54 -16 -42 -35 -87 -98 -87 -122 0 -12
-7 -28 -15 -35 -8 -7 -15 -23 -15 -36 0 -42 -77 -60 -124 -28 -33 21 -45 0
-14 -26 13 -11 27 -19 31 -20 4 0 7 -8 5 -17 -3 -15 7 -18 62 -21 39 -2 71 -9
81 -18 9 -8 20 -14 25 -13 16 2 54 -13 54 -22 0 -5 -7 -9 -15 -9 -8 0 -15 -5
-15 -11 0 -6 -9 -8 -20 -4 -12 4 -31 0 -43 -8 -25 -16 -121 -31 -209 -31 -50
-1 -54 -2 -35 -13 30 -17 131 -16 197 2 30 8 69 15 87 15 18 0 43 5 57 11 33
16 79 -12 74 -44 -4 -31 -109 -66 -209 -69 -63 -2 -76 -5 -63 -15 23 -16 195
-14 212 4 7 7 22 13 32 13 10 0 32 12 50 26 27 24 29 28 14 38 -14 11 -15 15
-3 35 12 19 12 24 -3 35 -19 14 -24 46 -8 46 6 0 10 -6 10 -14 0 -8 14 -17 30
-21 22 -5 30 -12 30 -28 0 -22 1 -22 19 2 13 17 23 22 39 16 22 -6 31 -25 12
-25 -5 0 -14 -10 -21 -21 -9 -18 -8 -24 5 -31 9 -5 16 -14 16 -20 0 -9 -3 -9
-12 0 -19 19 -66 15 -73 -7 -3 -11 -12 -22 -20 -25 -8 -3 -15 -13 -15 -22 0
-12 -6 -15 -21 -11 -12 3 -22 0 -26 -9 -3 -8 -12 -14 -20 -14 -17 0 -58 -38
-66 -61 -4 -13 -1 -15 15 -11 11 2 22 11 25 18 3 8 14 14 24 14 10 0 19 4 19
10 0 5 12 13 27 16 15 4 36 17 47 29 12 12 27 20 35 17 10 -3 12 0 7 13 -5 15
-2 17 25 11 17 -3 38 -6 46 -6 8 0 12 -4 9 -9 -7 -10 80 -24 147 -22 28 0 58
-6 72 -15 17 -11 28 -12 42 -5 10 5 30 12 46 16 16 3 27 12 28 23 0 10 3 12 6
5 7 -19 459 -19 465 0 4 9 89 13 371 15 227 2 367 6 367 12 0 6 15 10 34 10
44 0 66 9 66 25 0 8 8 11 20 8 11 -3 28 -2 37 3 10 4 22 8 26 8 4 1 11 6 15
11 4 6 16 12 27 13 11 2 27 10 36 18 8 8 21 14 28 14 8 0 11 6 7 16 -3 8 -2
12 3 9 5 -3 12 -1 16 5 4 6 10 8 15 5 14 -9 62 22 123 82 45 43 55 59 43 61
-10 2 -15 9 -13 15 20 47 34 67 45 67 7 0 11 4 7 9 -3 6 6 34 20 62 14 29 25
61 25 70 0 10 5 21 10 24 6 3 10 19 10 35 0 16 4 31 9 34 11 7 22 80 21 143
-1 28 5 67 13 86 12 27 13 61 6 178 -4 79 -8 194 -8 256 -1 81 -5 115 -15 125
-9 10 -16 53 -21 131 -4 64 -11 115 -15 112 -9 -6 -20 19 -20 45 0 10 -6 21
-12 23 -10 4 -10 6 0 6 17 1 15 61 -3 85 -8 11 -15 37 -15 58 0 27 -4 38 -15
38 -16 0 -18 18 -15 118 1 37 -3 54 -13 58 -9 3 -12 14 -9 31 6 34 -18 134
-35 140 -7 3 -13 14 -13 25 0 10 -4 17 -9 14 -5 -3 -11 24 -13 61 -2 39 -9 68
-16 71 -7 2 -12 10 -12 18 0 8 -6 14 -14 14 -13 0 -26 41 -26 81 0 20 -33 59
-50 59 -5 0 -10 15 -10 34 0 21 -6 36 -15 40 -8 3 -15 15 -15 26 0 11 -4 20
-8 20 -19 0 -52 39 -52 60 0 12 -9 33 -20 47 -11 14 -20 32 -20 39 0 8 -7 14
-15 14 -10 0 -15 10 -15 31 0 17 -4 28 -10 24 -6 -3 -10 4 -10 17 0 14 -16 41
-36 63 -30 33 -34 42 -25 62 6 12 27 29 48 38 52 20 66 29 71 44 3 9 -6 10
-34 5 -22 -4 -40 -11 -42 -15 -2 -5 -10 -9 -17 -9 -8 0 -18 -6 -22 -13 -4 -8
-30 -17 -58 -20 l-50 -7 28 17 c15 10 27 26 27 35 0 12 8 18 24 18 18 0 23 4
19 18 -2 10 -14 22 -25 27 -12 6 -24 16 -26 24 -3 8 0 11 5 8 14 -9 85 12 78
23 -3 4 -22 6 -43 3 -29 -4 -41 -1 -52 13 -13 16 -13 17 2 11 22 -8 48 21 28
33 -7 4 -20 6 -28 2 -11 -4 -13 -2 -6 9 4 8 7 21 6 30 -2 14 8 16 65 17 49 0
70 4 79 16 6 9 16 16 23 16 6 0 11 14 11 30 0 24 4 30 23 30 16 0 18 3 8 9 -7
5 -10 14 -6 20 5 9 11 9 23 -1 10 -8 13 -9 9 -1 -4 6 -1 18 7 26 19 18 11 27
-25 27 -33 0 -48 17 -19 22 15 2 17 7 10 18 -5 8 -10 10 -10 4z m-1830 -923
c0 -12 56 -34 68 -27 5 3 15 -1 22 -9 9 -11 16 -12 25 -5 10 8 15 8 20 -1 4
-6 1 -15 -6 -21 -12 -7 -11 -9 1 -7 43 4 72 -2 67 -14 -3 -7 4 -19 15 -26 12
-8 18 -19 15 -31 -2 -10 -1 -24 4 -31 6 -10 9 -8 9 9 0 27 22 25 26 -2 3 -21
0 -18 47 -40 20 -9 35 -21 32 -27 -10 -14 -35 -11 -35 6 0 9 -6 12 -15 8 -13
-5 -13 -8 5 -20 12 -8 27 -12 35 -9 8 3 19 -3 24 -12 10 -16 10 -16 11 1 0 20
11 22 28 5 8 -8 15 -8 27 2 13 11 15 8 15 -20 0 -32 -32 -248 -51 -343 -5 -27
-20 -153 -34 -280 -25 -233 -51 -437 -57 -442 -2 -1 -36 -17 -76 -35 -74 -32
-101 -33 -103 -5 -4 52 -56 179 -126 313 l-56 106 30 61 c17 33 36 76 44 95
21 56 80 164 98 180 9 8 25 31 35 50 45 88 62 111 81 104 17 -7 -14 86 -57
169 -30 58 -108 180 -163 256 -27 36 -31 51 -15 51 6 0 10 -4 10 -9z m-836
-31 c6 -6 15 -5 23 2 17 14 243 21 243 7 0 -6 -17 -36 -39 -67 -50 -75 -131
-209 -131 -218 0 -11 -89 -183 -137 -266 -47 -80 -69 -96 -77 -55 -3 12 -17
90 -32 172 -14 83 -35 193 -45 245 -10 52 -18 116 -19 142 l0 47 43 3 c64 6
160 -1 171 -12z m168 -442 c30 -63 41 -90 171 -420 9 -23 4 -37 -40 -115 -46
-80 -91 -177 -121 -258 -6 -16 -21 -75 -33 -130 -12 -55 -26 -105 -31 -111 -8
-11 -64 34 -96 77 -14 19 -67 352 -77 479 -5 81 -20 198 -31 248 -3 17 10 38
53 86 32 35 69 77 83 94 14 17 35 43 48 57 12 14 22 30 22 36 0 5 6 9 14 9 7
0 25 -24 38 -52z"/>
<path d="M2760 1200 c-72 -40 -133 -108 -176 -197 -49 -104 -57 -155 -44 -298
16 -177 30 -264 51 -321 22 -58 78 -124 126 -148 32 -16 153 -23 153 -8 0 4
-22 23 -48 42 -72 54 -188 178 -205 218 -43 106 -57 279 -33 396 18 90 72 180
142 238 49 40 81 54 147 63 50 7 59 18 28 35 -34 18 -84 11 -141 -20z"/>
<path d="M3284 1120 c-9 -22 -20 -40 -25 -40 -5 0 -9 -5 -9 -11 0 -7 -10 -20
-22 -31 -20 -17 -23 -30 -23 -86 0 -62 4 -73 49 -149 27 -46 54 -83 60 -82 38
1 96 155 96 253 0 40 -7 59 -40 108 -22 33 -40 64 -40 69 0 5 -7 9 -15 9 -8 0
-22 -18 -31 -40z"/>
</g>
</svg>
